<?xml version="1.0" standalone="no"?>
<!DOCTYPE svg PUBLIC "-//W3C//DTD SVG 20010904//EN"
 "http://www.w3.org/TR/2001/REC-SVG-20010904/DTD/svg10.dtd">
<svg version="1.0" xmlns="http://www.w3.org/2000/svg"
 width="1577.000000pt" height="1419.000000pt" viewBox="0 0 1577.000000 1419.000000"
 preserveAspectRatio="xMidYMid meet">

<g transform="translate(0.000000,1419.000000) scale(0.100000,-0.100000)"
fill="#000000" stroke="none">
<path d="M7940 14053 c-297 -47 -969 -218 -1245 -318 -346 -124 -711 -336
-1026 -596 -186 -153 -265 -198 -323 -183 -61 15 -71 108 -31 299 30 140 34
207 15 231 -37 44 -201 -21 -390 -153 -173 -121 -884 -859 -1167 -1211 -289
-359 -472 -710 -668 -1282 -104 -304 -156 -541 -176 -795 -46 -590 -52 -623
-140 -720 -75 -81 -144 -111 -299 -130 -202 -25 -334 -64 -523 -154 -331 -159
-638 -420 -813 -693 -258 -402 -343 -929 -238 -1472 63 -321 208 -635 432
-931 67 -88 214 -263 336 -400 59 -66 178 -208 264 -315 252 -314 334 -385
442 -384 75 0 127 29 218 122 135 136 222 274 321 505 42 98 66 28 57 -168 -3
-71 -16 -265 -30 -430 -38 -446 -46 -582 -53 -890 -12 -580 47 -862 246 -1172
49 -76 148 -183 170 -183 26 0 29 39 13 184 -21 193 -10 296 43 403 54 109
114 142 163 90 35 -37 51 -88 118 -381 36 -155 83 -335 105 -401 77 -229 223
-492 359 -647 67 -76 371 -367 403 -385 28 -16 49 -16 70 0 14 10 23 62 48
277 17 146 35 271 41 278 15 17 42 15 60 -5 9 -10 64 -97 123 -193 133 -219
161 -254 315 -410 195 -198 346 -315 581 -453 129 -76 370 -193 527 -257 70
-28 188 -81 262 -118 l135 -67 90 -168 c49 -92 92 -166 97 -165 10 4 3213
2874 3323 2978 132 125 118 120 154 51 62 -119 72 -245 45 -529 -8 -79 2 -92
48 -65 99 58 257 332 324 561 88 306 89 801 4 1780 -21 236 -26 497 -10 522 8
13 11 13 24 0 8 -8 26 -44 41 -80 81 -195 162 -318 299 -456 84 -85 110 -104
154 -119 134 -43 223 21 487 350 84 105 216 262 295 350 304 342 465 563 581
800 150 307 219 612 219 970 0 703 -303 1247 -897 1609 -256 156 -491 240
-743 266 -126 13 -191 41 -248 105 -47 54 -57 85 -82 262 -39 283 -89 453
-196 670 -115 235 -235 401 -724 1008 -147 182 -356 443 -465 580 -109 138
-278 349 -374 470 -232 292 -399 464 -425 438 -12 -12 -6 -43 35 -170 70 -221
62 -313 -30 -342 -38 -12 -54 -12 -124 2 -266 53 -594 326 -732 610 -56 116
-75 196 -75 319 0 119 13 182 55 275 55 119 102 180 282 365 95 97 173 180
173 186 0 22 -44 62 -78 72 -35 9 -218 12 -272 3z m-2402 -4388 c51 -8 153
-35 226 -59 294 -97 568 -273 879 -565 139 -130 175 -147 270 -120 28 7 71 41
150 116 366 345 688 533 1062 619 108 25 343 26 468 1 243 -49 548 -196 747
-361 292 -242 492 -548 580 -889 111 -432 67 -947 -115 -1334 -59 -125 -91
-171 -211 -294 -86 -89 -105 -114 -118 -159 -30 -99 10 -164 150 -247 238
-141 449 -575 519 -1068 8 -60 16 -153 18 -205 l2 -94 -112 -48 c-513 -217
-1179 -408 -1753 -502 -457 -75 -763 -99 -1255 -100 -410 -1 -561 7 -918 49
-773 91 -1529 299 -2247 618 -180 80 -330 155 -330 165 0 4 7 52 15 107 71
501 285 943 523 1081 150 87 190 169 135 279 -9 16 -61 77 -118 135 -116 120
-174 210 -236 368 -84 215 -127 430 -136 682 -14 413 79 762 289 1077 90 135
299 348 438 445 356 251 738 358 1078 303z m-2774 -1139 c50 -21 76 -60 76
-116 0 -27 -14 -120 -31 -207 -94 -474 -17 -940 221 -1338 58 -98 80 -159 80
-228 0 -86 -35 -143 -149 -241 -170 -147 -244 -241 -341 -436 -108 -216 -143
-250 -257 -250 -94 1 -157 36 -353 199 -379 314 -575 631 -661 1066 -20 103
-24 150 -24 325 0 177 3 217 22 290 50 196 140 358 278 496 181 182 400 289
815 399 230 61 266 65 324 41z m8551 -36 c232 -62 359 -106 493 -170 147 -71
245 -137 336 -227 91 -90 146 -169 205 -294 89 -187 123 -390 103 -613 -51
-555 -261 -933 -726 -1309 -156 -126 -233 -167 -315 -167 -112 0 -146 33 -255
247 -97 189 -146 253 -313 410 -74 71 -144 145 -155 166 -48 94 -32 186 58
337 177 297 258 600 257 970 -1 136 -5 188 -27 300 -50 254 -52 281 -30 326
42 87 119 92 369 24z m-7510 -3572 c316 -145 803 -319 1165 -417 1512 -411
3083 -363 4592 140 155 52 462 166 571 213 l38 17 -6 -73 c-37 -411 -164 -721
-420 -1026 -152 -182 -329 -334 -590 -506 -576 -382 -1056 -560 -1702 -632
-191 -21 -759 -30 -993 -15 -652 41 -1169 198 -1696 514 -300 179 -495 325
-674 506 -360 362 -526 741 -547 1249 l-6 153 79 -37 c43 -20 129 -59 189 -86z"/>
<path d="M5325 8459 c-73 -15 -202 -81 -263 -134 -102 -90 -192 -245 -233
-400 -31 -116 -31 -307 -1 -430 29 -116 96 -253 164 -333 319 -377 842 -243
1013 259 l24 70 -22 -7 c-43 -14 -133 -19 -196 -12 -252 29 -433 297 -367 543
41 154 137 256 305 322 23 9 22 11 -35 46 -110 69 -269 100 -389 76z"/>
<path d="M8110 8464 c-189 -37 -357 -169 -450 -354 -73 -145 -107 -336 -89
-500 12 -111 60 -262 110 -346 45 -76 147 -184 216 -230 117 -78 280 -107 413
-75 195 48 375 225 451 444 15 44 27 82 25 84 -1 1 -18 -2 -37 -7 -51 -16
-187 -13 -245 5 -64 19 -163 84 -204 133 -191 230 -117 566 153 692 l78 37
-51 33 c-79 51 -173 81 -265 85 -44 2 -91 1 -105 -1z"/>
<path d="M5915 6251 c-104 -23 -175 -74 -175 -127 0 -88 130 -184 315 -234
102 -28 299 -38 376 -20 137 32 188 95 145 179 -36 69 -161 142 -311 181 -89
24 -284 35 -350 21z"/>
<path d="M7543 6245 c-223 -40 -403 -150 -403 -246 0 -40 51 -94 108 -114 72
-26 259 -32 363 -10 326 66 487 249 301 344 -80 41 -231 51 -369 26z"/>
<path d="M2221 7565 c-96 -43 -269 -195 -358 -315 -76 -101 -153 -269 -153
-329 1 -38 15 -44 66 -27 73 23 191 39 242 31 72 -11 96 -43 111 -145 21 -138
79 -270 121 -270 44 0 109 108 159 264 94 294 75 661 -39 771 -35 34 -99 42
-149 20z"/>
<path d="M11434 7570 c-57 -23 -104 -118 -125 -254 -14 -90 -6 -318 15 -414
47 -216 143 -402 203 -390 38 7 94 141 114 273 13 84 29 112 77 132 43 18 134
12 245 -17 94 -24 106 -16 88 63 -35 158 -183 367 -355 501 -134 105 -199 132
-262 106z"/>
</g>
</svg>
